<?xml version="1.0" encoding="utf-8"?>
<!-- Generator: Adobe Illustrator 24.0.1, SVG Export Plug-In . SVG Version: 6.00 Build 0)  -->
<svg version="1.1" id="Layer_1" xmlns="http://www.w3.org/2000/svg" xmlns:xlink="http://www.w3.org/1999/xlink" x="0px" y="0px"
	 viewBox="0 0 85 18" style="enable-background:new 0 0 85 18;" xml:space="preserve">
<style type="text/css">
	.st0{fill:#F9D037;}
	.st1{fill:#FFFFFF;}
</style>
<g>
	<path class="st0" d="M83.3,0H2.1C1,0,0.1,0.9,0.1,2v10.9c0,1.1,0.9,1.9,1.9,1.9h2.6c0.3,0,0.7,0.2,0.9,0.4l2.3,2.1
		c0.3,0.3,0.6,0.4,1,0.4c0.4,0,0.8-0.2,1-0.4l2.3-2.1c0.2-0.2,0.5-0.4,0.9-0.4h70.1c1.1,0,1.9-0.9,1.9-1.9V2C85.2,0.9,84.3,0,83.3,0
		z"/>
	<g>
		<path class="st1" d="M16.8,10.4h-1.6V5.8h-1.6l0,0.5c-0.1,2.9-0.6,4.2-2,4.2c-0.2,0-0.5-0.1-0.6-0.1V9c0,0,0.1,0,0.2,0
			c0.7,0,0.9-0.9,0.9-3.2l0-1.4h4.7V10.4z"/>
		<polygon class="st1" points="23,5.8 20.3,5.8 20.3,10.4 18.7,10.4 18.7,4.5 23,4.5 		"/>
		<polygon class="st1" points="44.7,10.4 43.1,10.4 43.1,7.2 39.8,10.5 39.3,10.5 39.3,4.5 40.9,4.5 40.9,7.7 44.2,4.3 44.7,4.3 		
			"/>
		<polygon class="st1" points="51.2,5.8 49.4,5.8 49.4,10.4 47.8,10.4 47.8,5.8 46,5.8 46,4.5 51.2,4.5 		"/>
		<polygon class="st1" points="59,10.4 57.4,10.4 57.4,7.5 56,9.1 55.4,9.1 54,7.5 54,10.4 52.4,10.4 52.4,4.3 53,4.3 55.7,7.4 
			58.5,4.3 59,4.3 		"/>
		<polygon class="st1" points="66.3,10.4 64.7,10.4 64.7,7.2 61.4,10.5 60.9,10.5 60.9,4.5 62.5,4.5 62.5,7.7 65.8,4.3 66.3,4.3 		
			"/>
		<polygon class="st1" points="72.2,10.4 69.8,7.3 69.8,10.4 68.2,10.4 68.2,4.5 69.8,4.5 69.8,7.2 72,4.5 73.9,4.5 71.6,7.2 
			74.1,10.4 		"/>
		<path class="st1" d="M26.9,4.3c-1.8,0-3.2,1.3-3.2,3.1s1.4,3.1,3.1,3.1c1.8,0,3.2-1.4,3.2-3.1S28.7,4.3,26.9,4.3z M26.9,9
			c-0.9,0-1.5-0.7-1.5-1.6c0-0.9,0.6-1.6,1.5-1.6c0.9,0,1.5,0.7,1.5,1.6C28.4,8.3,27.8,9,26.9,9z"/>
		<path class="st1" d="M7.3,4.3c-1,0-1.9,0.4-2.6,1.2l0.8,1C6,6,6.5,5.7,7.1,5.7c0.7,0,1.1,0.4,1.1,1V7H6.7C5.4,7,4.5,7.7,4.5,8.7
			c0,1,0.7,1.8,2,1.8c0.8,0,1.4-0.3,1.8-0.7v0.6h1.5V6.9C9.8,5.2,8.8,4.3,7.3,4.3z M8.2,8.2c0,0.7-0.6,1.2-1.2,1.2
			c-0.5,0-0.8-0.2-0.8-0.6c0-0.4,0.3-0.6,0.8-0.6L8.2,8.2L8.2,8.2z"/>
		<path class="st1" d="M34.9,4.3c-0.8,0-1.5,0.3-1.9,0.9V4.5h-1.5v8h1.6V9.8c0.4,0.5,1,0.7,1.8,0.7c1.7,0,2.9-1.3,2.9-3.1
			S36.6,4.3,34.9,4.3z M34.6,9c-0.7,0-1.5-0.5-1.5-1.6c0-1.1,0.7-1.6,1.5-1.6c0.8,0,1.5,0.6,1.5,1.6S35.5,9,34.6,9z"/>
		<path class="st1" d="M77.5,4.3c-1,0-1.9,0.4-2.6,1.2l0.8,1c0.5-0.5,0.9-0.8,1.6-0.8c0.7,0,1.1,0.4,1.1,1V7H77
			c-1.4,0-2.2,0.6-2.2,1.7c0,1,0.7,1.8,2,1.8c0.8,0,1.4-0.3,1.8-0.7v0.6h1.5V6.9C80.1,5.2,79,4.3,77.5,4.3z M78.5,8.2
			c0,0.7-0.6,1.2-1.2,1.2c-0.5,0-0.8-0.2-0.8-0.6c0-0.4,0.3-0.6,0.8-0.6L78.5,8.2L78.5,8.2z"/>
	</g>
</g>
</svg>
